<?xml version="1.0" encoding="utf-8"?>
<!-- Generator: Adobe Illustrator 26.3.0, SVG Export Plug-In . SVG Version: 6.00 Build 0)  -->
<svg version="1.1" id="Livello_1" xmlns="http://www.w3.org/2000/svg" xmlns:xlink="http://www.w3.org/1999/xlink" x="0px" y="0px"
	 viewBox="0 0 632 584" style="enable-background:new 0 0 632 584;" xml:space="preserve">
<path d="M243.8,141.2c0,12.4-10,22.4-22.4,22.4s-22.4-10-22.4-22.4s10-22.4,22.4-22.4S243.8,128.8,243.8,141.2"/>
<path d="M562.4,180h-68.5c2.6-16,3.1-32.3,1.3-48.5c-1.2-6.8-5.4-12.6-11.4-15.9c-6-3.3-13.3-3.6-19.6-0.9L338.4,167v-31.8
	c0-40-21.3-77-56-97c-34.7-20-77.3-20-112,0c-34.7,20-56,57-56,97H69.6c-8,0-15.4,4.3-19.4,11.2c-4,6.9-4,15.5,0,22.4
	c4,6.9,11.4,11.2,19.4,11.2h44.8v33.6h0c0.1,48.6,15.2,96,43.2,135.6s67.8,69.6,113.6,85.8v103.3c0,8,4.3,15.4,11.2,19.4
	c6.9,4,15.5,4,22.4,0c6.9-4,11.2-11.4,11.2-19.4v-92.3c11.1,1.7,22.4,2.6,33.6,2.7c11.2-0.1,22.5-1,33.6-2.7v92.3
	c0,8,4.3,15.4,11.2,19.4c6.9,4,15.5,4,22.4,0c6.9-4,11.2-11.4,11.2-19.4V435.1c45.8-16.2,85.5-46.2,113.6-85.8s43.2-87,43.2-135.6
	v-11.2c0-5.9-2.4-11.6-6.6-15.8C574,182.4,568.3,180,562.4,180L562.4,180z M349.6,404c-50.5,0-98.9-20.1-134.6-55.8
	c-35.7-35.7-55.8-84.1-55.8-134.6v-78.4c0-24,12.8-46.2,33.6-58.2c20.8-12,46.4-12,67.2,0s33.6,34.2,33.6,58.2V167
	c0,15.4,7.8,29.7,20.6,38.2c12.8,8.5,29.1,9.9,43.2,3.9l93.2-40.2c-4.3,36.9-25.9,97.4-118.4,123.8c-7.7,2.2-13.6,8.3-15.6,16.1
	c-1.9,7.8,0.4,16,6.2,21.6c5.8,5.6,14,7.6,21.8,5.4c81.1-23,119.3-68.7,137-110.9h58.1c-2.9,48.5-24.1,94-59.5,127.3
	C444.9,385.5,398.2,404,349.6,404L349.6,404z"/>
</svg>
