<?xml version="1.0" encoding="utf-8"?>
<!-- Generator: Adobe Illustrator 26.3.0, SVG Export Plug-In . SVG Version: 6.00 Build 0)  -->
<svg version="1.1" id="Livello_1" xmlns="http://www.w3.org/2000/svg" xmlns:xlink="http://www.w3.org/1999/xlink" x="0px" y="0px"
	 viewBox="0 0 575 442" style="enable-background:new 0 0 575 442;" xml:space="preserve">
<path d="M528.6,212.7c-1.5-5.8-1.5-12,0-17.8l19-75.8c0.8-3.3-0.4-6.7-3.1-8.7c-2.7-2-6.3-2.3-9.2-0.6l-73,42.1
	c-6.1,3.6-13.1,5.4-20.1,5c-7.1-0.3-13.9-2.8-19.5-7c-4-2.9-8.1-5.7-12.3-8.4c1.7-6.3,4.4-16.6,6.6-24.9l0,0c0.7-2.8,0-5.7-1.9-7.8
	C361,50,292,35.9,237.9,30.3h0c-2.9-0.3-5.8,1-7.6,3.3l-41.6,55.5c-30.5,5.1-59.7,16.2-85.8,32.8s-48.6,38.3-66.1,63.8
	c-7.7,10.9-11,24.3-9.3,37.6c1.7,13.2,8.4,25.4,18.6,33.9c19.5,16.5,41.2,30.1,64.4,40.6c0.4,0.3,0.8,0.6,1.2,0.8
	c0.7,0.4,1.5,0.6,2.3,0.8c25.3,10.9,52,18,79.4,21c19.2,44,50.2,74.6,92.3,90.9c2.3,0.9,4.8,0.7,7-0.4c2.1-1.1,3.7-3.2,4.2-5.5
	l12.8-55.5c0.5-2.1,0.1-4.3-1-6.2l-16.7-28.2c10.7-2.2,21.4-5,32.1-8.3l52.7,38.6c1.8,1.3,4.1,1.9,6.3,1.5c2.2-0.4,4.2-1.6,5.5-3.4
	l45.8-64.5l0,0c1.3-1.9,1.8-4.2,1.4-6.4s-1.8-4.2-3.7-5.5l-10.5-6.7c1.2-0.8,2.4-1.5,3.6-2.3v0c5.7-3.9,12.3-6.1,19.2-6.3
	c6.9-0.2,13.6,1.5,19.5,5l71.3,41.2c2.9,1.7,6.6,1.4,9.2-0.6c2.7-2,3.9-5.5,3.1-8.7L528.6,212.7z M240.9,47.5
	c71.4,8.2,120.7,29.7,158.7,69.3c-1.4,5.2-2.8,10.7-4,15.4C337,97.6,272.4,81.4,211.8,86.3L240.9,47.5z M50.6,195.3
	c12.7-18.3,28.1-34.5,45.7-48.2c36.2,34.4,41.2,77.9,15.5,132.6v0c-19.7-9.4-38.1-21.3-54.8-35.4c-7-5.9-11.6-14.2-12.7-23.3
	C43,212,45.3,202.8,50.6,195.3L50.6,195.3z M292.6,349.3l-9.8,42.5c-30.8-14.4-55.7-39.1-70.1-69.9c4.7,0.2,9.4,0.4,14.1,0.4h0
	c15.9,0,31.8-1.3,47.6-3.7L292.6,349.3z M415.7,276.6L380,327l-36.4-26.7v0c21.7-8.1,42.5-18.2,62.4-30L415.7,276.6z M472.4,242.4
	c-8.6-5.1-18.5-7.6-28.5-7.3c-10,0.3-19.7,3.5-27.9,9.2c-94.7,63.4-201,77.4-288.9,42.3c28.1-60,22.5-110.1-16.8-149.2v0
	c24.9-16.1,52.9-26.9,82.1-31.7c13.5-2.3,27.1-3.4,40.8-3.4c60.4,0,124,21.4,179.8,61.4v0c8.3,6.1,18.2,9.5,28.5,10s20.5-2,29.3-7.2
	l55.8-32.2l-14.2,56.6c-2.2,8.5-2.2,17.5,0,26l14.2,56.9L472.4,242.4z"/>
</svg>
