<?xml version="1.0" encoding="utf-8"?>
<!-- Generator: Adobe Illustrator 26.3.0, SVG Export Plug-In . SVG Version: 6.00 Build 0)  -->
<svg version="1.1" id="Livello_1" xmlns="http://www.w3.org/2000/svg" xmlns:xlink="http://www.w3.org/1999/xlink" x="0px" y="0px"
	 viewBox="0 0 619 577" style="enable-background:new 0 0 619 577;" xml:space="preserve">
<g>
	<path d="M520.5,360.4c-1.6-1.6-3.9-2.6-6.2-2.6c-2.3,0-4.5,0.9-6.2,2.5c-5.2,5.2-8.1,12.2-8.1,19.5s2.9,14.4,8.1,19.5
		c3.4,3.4,9,3.4,12.4,0c3.4-3.4,3.4-9,0-12.4c-1.9-1.9-3-4.4-3-7.1s1.1-5.2,3-7.1C523.9,369.4,523.9,363.8,520.5,360.4L520.5,360.4z
		"/>
	<path d="M381.4,237.5c2.9-2,6.3-3.2,9.8-3.5c-1.3,2-1.9,4.4-2,6.8c0,7.2,5.9,13,13.1,13c7.2,0,13.1-5.8,13.1-13
		c0-1.1-0.2-2.2-0.4-3.2c2,0.9,3.8,2.2,5.2,3.9c1.3,1.9,3.3,3.3,5.6,3.7c2.3,0.5,4.6,0,6.6-1.3c1.9-1.3,3.3-3.3,3.7-5.6
		c0.4-2.3,0-4.6-1.3-6.6c-4.9-7.4-15.1-12.7-27.9-14.8c-14.4-2.3-28,0.2-36.3,6.8c-1.8,1.4-3,3.5-3.3,5.8c-0.3,2.3,0.4,4.6,1.8,6.5
		c1.4,1.8,3.5,3,5.8,3.3C377.3,239.5,379.6,238.9,381.4,237.5L381.4,237.5z"/>
	<path d="M378.4,357.2c8-0.7,13.8-1.2,19.9,1.6c3.9,1.8,7.6,3.8,11.2,5.8c7.5,4.5,15.6,8,24,10.5c4.7,1.3,9.4-1.5,10.7-6.2
		c1.3-4.7-1.5-9.5-6.1-10.7c-7.1-2.1-13.8-5.2-20.2-8.9c-3.8-2.1-7.7-4.2-12.2-6.3h0c-9.1-3.7-19.1-4.8-28.8-3.2
		c-9.7,1.3-19.5,0.8-28.9-1.7c-4.6-1.3-9.5,1.4-10.8,6.1c-1.3,4.6,1.4,9.5,6,10.8C354.7,357.9,366.7,358.7,378.4,357.2L378.4,357.2z
		"/>
	<path d="M44.8,463.5l126.6-140.8c30.5-33.8,64.8-63.9,102.4-89.6v2.9c0,4.8,3.9,8.8,8.8,8.8h35c3.3,0,6.3-1.9,7.8-4.9L464.7,353
		c-8.3,11.9-13.7,25.6-15.7,39.9c-2.6-1.3-5.2-2.4-7.6-3.4c-1.2-0.5-2.4-1-3.6-1.5c-5.8-2.7-11.4-5.8-16.8-9.3
		c-3.5-2.1-7-4.2-10.6-6.2c-11.4-5.6-24.1-7.8-36.7-6.4c-0.1,0-0.1,0-0.2,0s-0.1,0-0.2,0c-18.2,2.6-36.6-2.3-51.1-13.5
		c-13.8-11.2-22-28.3-23.8-49.4c-0.2-2.3-1.3-4.5-3.1-6c-1.8-1.5-4.1-2.2-6.4-2s-4.5,1.3-5.9,3.1c-1.5,1.8-2.2,4.1-2,6.4
		c0.9,11.6,3.8,22.9,8.7,33.5c-49.4,30.7-73.1,100.2-88.9,146.6c-5.8,16.9-12.9,37.9-16.8,40.9c-2.1,1.1-3.6,2.9-4.3,5.1
		c-0.7,2.2-0.5,4.6,0.6,6.7c1.1,2.1,2.9,3.6,5.2,4.3c2.2,0.7,4.6,0.5,6.7-0.6c9.3-4.9,14.7-19.9,25.2-50.7
		c15-44,37.4-109.8,81.3-137.3h0c1.7,2.2,3.5,4.3,5.4,6.4c-51.7,43.2-78.8,132.3-78.8,156.4c0,4.8,3.9,8.8,8.8,8.8s8.8-3.9,8.8-8.8
		c0-21.6,26.6-106.9,75-145c13.8,8.8,29.8,13.4,46.1,13.2c3.6,0,7.3-0.2,10.9-0.6h0c9.2-1.1,18.6,0.4,27.1,4.3
		c3.4,1.8,6.6,3.8,9.9,5.8c6,3.9,12.3,7.3,18.8,10.3c1.3,0.6,2.6,1.1,4,1.7h0c4.6,1.4,8.7,3.8,12.2,7.2c1.3,2,2.3,4.1,3.1,6.3
		c0.7,1.8,1.4,3.5,2.2,5.2h0c3.9,7.1,8.9,13.5,14.8,19c4.9,5.7,11.2,10.1,18.3,12.5c2.6,0.7,5.3,1,8.1,1c3.1-0.1,6.3-0.3,9.4-0.8
		c8.1-0.5,15.9-3.6,22.2-8.9c0.5,0,1,0.1,1.5,0.1c1.6,0.1,3.2,0.2,4.9,0.2h0c6.6,0,13-1.9,18.5-5.4c2.4-1.4,4.7-2.9,6.8-4.7
		c0.9-0.7,1.8-1.4,2.7-2.2v0c10.8-10.2,15.9-25.2,13.4-39.9c-0.1-2.7,0.4-5.5,1.7-7.9c0.1-0.3,0.2-0.6,0.3-0.9l0,0
		c6.4-2.8,11.4-8.2,13.8-14.8c2.3-7.9,0.3-16.4-5.2-22.5c-2.3-2.8-5-5.3-7.8-7.5c-10.7-8.6-19.9-18.9-27.3-30.5
		c-0.8-1.4-1.6-2.8-2.4-4.3v0c-4.5-9.7-11.5-17.9-20.2-24c-0.9-0.7-1.8-1.4-2.6-2c-15.7-12.4-27.1-29.5-32.6-48.7
		c-0.6-2.2-1.2-4.3-1.7-6.5v0c-1.6-8.3-4.6-16.3-9-23.6c-6.4-8.5-14.5-15.5-23.9-20.5c-2.3-1.4-4.6-2.9-6.8-4.4
		c-4-2.7-12.7-9.4-14.6-17.3c17.5-18.7,28-55.6,3.4-103.7c-0.1-0.2-0.2-0.3-0.3-0.4h0c-0.2-0.3-0.3-0.5-0.5-0.8
		c-0.2-0.2-0.3-0.4-0.5-0.6h0c-0.2-0.2-0.4-0.4-0.6-0.6c-0.2-0.2-0.4-0.4-0.7-0.5c-0.2-0.2-0.5-0.3-0.7-0.5
		c-0.3-0.2-0.5-0.3-0.8-0.4c-0.2-0.1-0.3-0.2-0.5-0.2c-0.1,0-0.2,0-0.3-0.1c-0.3-0.1-0.6-0.2-0.9-0.2c-0.3-0.1-0.6-0.1-0.8-0.2
		c-0.3,0-0.5,0-0.8-0.1v0c-0.3,0-0.6,0-0.9,0c-0.2,0-0.5,0.1-0.7,0.1c-0.3,0-0.6,0.1-0.9,0.2c-0.2,0.1-0.5,0.1-0.7,0.2
		c-0.3,0.1-0.6,0.2-0.9,0.4c-0.1,0-0.2,0.1-0.2,0.1c-0.1,0.1-0.3,0.2-0.4,0.3c-0.3,0.2-0.6,0.3-0.9,0.5c-0.2,0.2-0.4,0.3-0.6,0.5
		c-0.2,0.2-0.4,0.4-0.7,0.6c-0.2,0.2-0.4,0.4-0.5,0.6c-0.2,0.2-0.3,0.5-0.5,0.7c-0.2,0.3-0.3,0.6-0.4,0.8c-0.1,0.2-0.2,0.3-0.2,0.5
		c-3.4,7.5-8.3,14.2-14.4,19.7c-8.1,8.4-17.1,17.7-19.8,33.9h0c-1.5-0.2-2.9-0.3-4.4-0.3c2.9-25.6-2.4-53.6-14.2-71.8
		c0,0-0.1-0.1-0.1-0.1c-0.2-0.3-0.4-0.6-0.7-0.8c-0.1-0.2-0.3-0.4-0.4-0.5v0c-0.2-0.2-0.4-0.4-0.7-0.6c-0.2-0.2-0.4-0.4-0.7-0.5
		c-0.2-0.1-0.4-0.2-0.6-0.3c-0.3-0.2-0.6-0.3-0.9-0.5c0,0-0.1-0.1-0.1-0.1c-0.2-0.1-0.4-0.1-0.6-0.2c-0.3-0.1-0.6-0.2-1-0.3
		c-0.3-0.1-0.5-0.1-0.8-0.1c-0.3,0-0.6-0.1-0.9-0.1c-0.3,0-0.5,0-0.8,0.1c-0.3,0-0.6,0.1-0.9,0.1c-0.3,0.1-0.5,0.1-0.8,0.2
		c-0.3,0.1-0.5,0.2-0.8,0.3v0c-0.3,0.1-0.6,0.3-0.9,0.4c-0.2,0.1-0.4,0.2-0.5,0.3c0,0-0.1,0.1-0.1,0.1h0c-0.3,0.2-0.5,0.4-0.8,0.6
		c-0.2,0.2-0.4,0.3-0.5,0.5h0c-0.2,0.2-0.4,0.4-0.6,0.7c-0.2,0.2-0.4,0.4-0.5,0.7c-0.1,0.2-0.2,0.4-0.4,0.7v0
		c-0.2,0.3-0.3,0.6-0.4,0.9c0,0.1-0.1,0.1-0.1,0.1v0c-4.3,10.5-11.1,19.9-19.8,27.3c-8.9,7.6-15.9,17.2-20.4,28.1
		c-8,0.1-16,0.8-23.9,2h0l0,0c-42.5,6.7-66.6,28-90,48.9c-8.5,7.6-16.6,14.7-25.6,21.2c-35.1,8.1-51.9,26.8-61.8,42.3
		c-31.7,15.2-52.7,37.4-58.8,55.9c-12.1,11.2-20.3,26-23.5,42.2l0,0.2c0,0.1,0,0.2-0.1,0.3c0,0.2,0,0.4-0.1,0.6v0
		c-0.1,0.3-0.1,0.7-0.1,1c0,0.3,0,0.6,0,0.8c0,0.3,0,0.6,0.1,0.9c0,0.3,0.1,0.6,0.2,0.8s0.1,0.5,0.2,0.8c0.1,0.3,0.2,0.5,0.3,0.7
		l0,0c0.1,0.3,0.3,0.5,0.4,0.8c0.1,0.2,0.3,0.5,0.5,0.7c0.2,0.2,0.3,0.5,0.5,0.7h0c0.2,0.2,0.5,0.4,0.7,0.7c0.2,0.1,0.3,0.3,0.4,0.4
		c0,0,0.1,0,0.1,0.1h0c0.7,0.5,1.4,0.9,2.2,1.2c0.2,0.1,0.4,0.1,0.5,0.2c0.2,0.1,0.4,0.2,0.6,0.2l0,0c0.6,0.1,1.2,0.2,1.8,0.2l0,0h0
		c0.6,0,1.2-0.1,1.8-0.2c0.2,0,0.3-0.1,0.5-0.1c0.4-0.1,0.8-0.3,1.2-0.4c0.2-0.1,0.3-0.1,0.5-0.2c0.5-0.3,1-0.6,1.5-0.9
		c0.1,0,0.1-0.1,0.2-0.1c0.4-0.4,0.8-0.8,1.2-1.2c0.1-0.1,0.1-0.1,0.2-0.2c6.6-8.6,22.5-14.2,29.6-12.2h0c4.6,1.3,9.5-1.3,10.8-6
		c1.3-4.6-1.3-9.5-6-10.8c-7.5-1.7-15.3-1.3-22.5,1.3c6.4-8.9,15.1-15.8,25.2-20c0.4-0.2,0.8-0.3,1.2-0.5c9.6-3.8,19.8-6.1,30.1-6.9
		c0.2,0,0.3-0.1,0.5-0.1c0.3,0,0.6-0.1,0.9-0.2c0.3-0.1,0.5-0.1,0.8-0.2h0c0.3-0.1,0.6-0.2,0.8-0.3c0.3-0.1,0.5-0.3,0.7-0.4
		c0.2-0.1,0.5-0.3,0.7-0.5c0.2-0.2,0.4-0.3,0.6-0.5c0.2-0.2,0.4-0.4,0.6-0.6c0.2-0.2,0.4-0.4,0.5-0.6c0.2-0.2,0.3-0.5,0.5-0.7
		c0.1-0.2,0.3-0.5,0.4-0.7c0.1-0.3,0.2-0.5,0.3-0.8c0.1-0.3,0.2-0.5,0.2-0.8c0.1-0.3,0.1-0.6,0.2-0.9c0-0.3,0.1-0.6,0.1-0.9
		c0-0.2,0.1-0.3,0.1-0.5c0-0.1,0-0.3,0-0.4c0-0.1,0-0.2,0-0.4c0-0.2-0.1-0.3-0.1-0.5h0c-0.1-0.6-0.2-1.2-0.4-1.7
		c-0.1-0.2-0.2-0.5-0.3-0.7h0c-0.1-0.3-0.3-0.6-0.5-0.9c-0.1-0.2-0.2-0.3-0.3-0.5v0c-0.2-0.3-0.5-0.7-0.8-1
		c-0.1-0.1-0.2-0.2-0.2-0.2v0c-0.3-0.3-0.7-0.6-1.1-0.9l-0.1-0.1l0,0c-0.4-0.3-0.9-0.5-1.4-0.7l-0.1-0.1l0,0
		c-0.5-0.2-0.9-0.3-1.4-0.4c-0.1,0-0.2,0-0.3-0.1c-0.4-0.1-0.9-0.1-1.3-0.1c-0.1,0-0.2,0-0.4,0c-8.8,0.2-17.4,1.7-25.8,4.5
		c17.5-15.7,38.6-26.8,61.5-32.3c4.5-0.8,9-1.2,13.6-1.3c4.8,0,8.8-3.9,8.8-8.8s-3.9-8.8-8.8-8.8c-5,0-10,0.4-14.9,1.3
		c12.2-8.5,29.8-15.1,56.4-16.4v0c4.3-0.2,7.8-3.4,8.3-7.7c0.5-4.2-2.2-8.2-6.3-9.4c1.8-1.6,3.6-3.2,5.4-4.8
		c20.2-18,39.7-35.3,71.2-42.7l6.1,75.3h-5.9c-4.8,0-8.8,3.9-8.8,8.8v11.1c-42.6,27.8-81.4,61.1-115.4,98.9L31.8,451.8
		c-3.2,3.6-2.9,9.1,0.7,12.4S41.6,467.1,44.8,463.5L44.8,463.5z M308.8,227.2h-17.5v-17.5h17.5V227.2z M564.4,355.4
		c1.9,1.5,3.7,3.1,5.3,5c1.6,1.6,2.4,3.9,2.2,6.1c-1.3,2.5-3.6,4.4-6.4,4.9c-2.9,0.8-5.2,3-6,5.9c-0.4,1.4-0.9,2.7-1.4,4v0
		c-2.5,5.4-3.4,11.4-2.6,17.3c1.3,8.5-1.5,17-7.4,23.2c-0.8,0.6-1.5,1.3-2.3,1.9c-1.5,1.2-3,2.3-4.7,3.2c-4,2.7-8.9,3.8-13.7,2.9
		c-1.9-0.1-4-0.2-6.4-0.2h0c-0.1,0-0.2,0-0.2,0h0c-0.3,0-0.7,0-1,0.1c-0.2,0-0.5,0.1-0.7,0.1h0c-0.3,0.1-0.6,0.2-0.9,0.3
		c-0.3,0.1-0.5,0.2-0.8,0.3c-0.3,0.1-0.5,0.3-0.8,0.4c-0.2,0.1-0.5,0.3-0.7,0.4c-0.2,0.2-0.5,0.4-0.7,0.6c-0.2,0.2-0.4,0.4-0.6,0.6
		c-0.2,0.2-0.3,0.4-0.5,0.6c-0.2,0.2-0.4,0.5-0.6,0.8c0,0.1-0.1,0.1-0.2,0.2c-1.9,3.3-9.5,4.3-13.1,4.8v0c-3.4,0.7-6.9,0.8-10.4,0.3
		c-4.1-1.8-7.7-4.5-10.5-7.9c-4.6-4.2-8.5-9-11.6-14.4c-0.6-1.3-1.2-2.7-1.7-4c-0.4-1-0.9-2.1-1.3-3.2c0.4-1,0.6-2,0.6-3.1
		c0-19.9,7.9-39.1,21.8-53.3s33-22.4,52.9-22.8C547.2,339.6,555.4,348,564.4,355.4L564.4,355.4z M299.6,114c3.2-0.3,6.6-0.6,10-0.7
		h0c-0.4,4.2-0.5,8.3-0.3,12.5c0.2,4.7,4,8.5,8.7,8.5c0.1,0,0.2,0,0.3,0c4.8-0.2,8.6-4.2,8.4-9c-0.9-25.3,8-34,19.3-45.1
		c5.6-5.2,10.7-11,15.2-17.2c6,18.3,6.9,37.9,2.7,56.6c0,0.1,0,0.2,0,0.3c-0.1,0.3-0.1,0.6-0.1,1c0,0.3-0.1,0.5-0.1,0.8l0,0
		c0,0.3,0,0.6,0.1,0.9c0,0.3,0.1,0.6,0.1,0.8c0.1,0.3,0.1,0.5,0.2,0.8c0.1,0.3,0.2,0.6,0.3,0.9c0,0.1,0.1,0.2,0.1,0.3
		c0.1,0.2,0.2,0.3,0.2,0.4c0.1,0.3,0.3,0.5,0.5,0.8c0.2,0.2,0.3,0.4,0.5,0.7c0.2,0.2,0.4,0.4,0.6,0.6c0.2,0.2,0.4,0.4,0.6,0.6
		c0.2,0.2,0.4,0.4,0.7,0.5c0.2,0.2,0.5,0.3,0.7,0.4c0.2,0.1,0.5,0.3,0.8,0.4h0c0.3,0.1,0.6,0.2,0.9,0.3c0.2,0,0.3,0.1,0.5,0.2
		c0.1,0,0.2,0,0.3,0c0.5,0.1,0.9,0.1,1.4,0.2c0.1,0,0.3,0,0.4,0c0,0,0.1,0,0.1,0c0.2,0,0.4,0,0.5,0l0,0c0.4,0,0.7-0.1,1.1-0.1
		c0.2,0,0.4-0.1,0.6-0.1h0c0.3-0.1,0.7-0.2,1-0.3c0.1,0,0.2-0.1,0.3-0.1c3.8-1.6,8-2,12-1c4,0.9,7.6,3.1,10.3,6.2
		c3.4,3.4,8.9,3.3,12.3-0.1c3.4-3.4,3.4-8.9,0-12.3c-1.9-1.9-4-3.6-6.2-5.1c1-13.1,7.4-19.9,15.5-28.2c2.9-2.9,5.9-6.1,8.7-9.7
		c11.7,32.5,4.6,58.4-9.3,70.9c-0.5,0.4-0.9,0.9-1.3,1.5c-0.2,0.2-0.3,0.5-0.4,0.7c-0.1,0.2-0.3,0.4-0.4,0.7h0c-0.5,1-0.7,2-0.8,3.1
		l0,0.1c0,0.1,0,0.2,0,0.3c-0.2,12.7,7.8,25.2,22.6,35.2c2.4,1.6,4.8,3.2,7.3,4.7v0c7.2,3.8,13.5,9,18.6,15.4
		c3.2,5.6,5.4,11.8,6.6,18.1c0.6,2.4,1.2,4.8,1.8,7.1c6.5,22.8,20,42.9,38.6,57.7c0.9,0.7,1.9,1.5,2.9,2.2c2.5,1.8,4.9,3.8,7.1,6
		c2.9,3.2,5.3,6.8,7.3,10.6c-20.2,2.6-38.9,11.7-53.4,26L326.3,218.1V201c0-4.8-3.9-8.8-8.8-8.8H306L299.6,114z"/>
</g>
</svg>
