<?xml version="1.0" encoding="utf-8"?>
<!-- Generator: Adobe Illustrator 26.3.0, SVG Export Plug-In . SVG Version: 6.00 Build 0)  -->
<svg version="1.1" id="Livello_1" xmlns="http://www.w3.org/2000/svg" xmlns:xlink="http://www.w3.org/1999/xlink" x="0px" y="0px"
	 viewBox="0 0 521 606" style="enable-background:new 0 0 521 606;" xml:space="preserve">
<g>
	<path d="M196.1,327.6c-2.6,0-5.2-1.1-7.1-3.2c-18.6-21.3-27.6-49-26-80.2c2-39.7-4.6-67.4-19.6-82.4c-11.4-11.4-28-16.2-51-15.1
		c-5.1,0.3-9.6-3.7-9.9-8.9c-0.3-5.2,3.7-9.6,8.9-9.9c28.1-1.6,50.1,5.4,65.3,20.5c19.3,19.2,27.5,50.9,25.1,96.8
		c-1.3,26.2,6,49.3,21.3,66.8c3.4,3.9,3,9.9-0.9,13.3C200.5,326.8,198.3,327.6,196.1,327.6L196.1,327.6z"/>
	<path d="M124.8,283.5c-0.5,0-0.9,0-1.4,0c-27.6-1.6-47.3-37.7-45.1-82.1c1.4-31.1,13.7-58.9,31.3-70.9c4.3-2.9,10.2-1.8,13.1,2.5
		c2.9,4.3,1.8,10.2-2.5,13.1c-12.7,8.6-21.9,31.2-23.1,56.2c-1.8,35.7,12.9,61.6,27.3,62.4c14.1,0.8,30.8-23.6,32.6-59.5
		c0.6-8.8,0-17.3-1.7-25.4c-1.1-5.1,2.1-10.1,7.2-11.2c5.1-1.1,10.1,2.1,11.2,7.2c2.1,9.8,2.8,20,2.1,30.4
		C173.6,249.9,151.3,283.5,124.8,283.5L124.8,283.5z"/>
	<path d="M125.8,244.2c-0.2,0-0.4,0-0.6,0c-15.5-1-26-19.1-24.8-41.9c0.8-22.3,13.6-39.5,28.6-38.9c0.1,0,0.2,0,0.3,0
		c15.2,1,25.7,18.9,24.5,41.6C152.9,227.1,140.7,244.2,125.8,244.2L125.8,244.2z M128.2,182.2c-2.2,0.3-8.4,7.6-9,21
		c-0.8,14.3,4.8,22.1,6.9,22.2h0c1.9,0,8.3-7.2,8.8-21.3C135.7,190.3,130.4,182.7,128.2,182.2L128.2,182.2z"/>
	<path d="M98.3,146.4c-2.7,0-5.3-1.1-7.2-3.3c-3.4-4-2.9-9.9,1-13.3c38.3-32.7,94.5-54.7,167.1-65.4c5.1-0.8,9.9,2.8,10.7,7.9
		c0.8,5.2-2.8,9.9-7.9,10.7c-69,10.2-122.1,30.8-157.6,61.1C102.6,145.6,100.5,146.4,98.3,146.4L98.3,146.4z"/>
	<path d="M260.7,583c-33.4,0-60-14.4-86.3-46.6c-3-3.8-6.2-7.9-9.7-12.3c-18.5-23.6-43.7-55.9-81-92.4c-29.5-28.9-53.8-56-52-95.1
		c1.9-43.3,18.7-82.9,50-117.7c3.5-3.9,9.5-4.2,13.3-0.7c3.9,3.5,4.2,9.4,0.7,13.3c-28.3,31.5-43.5,67.2-45.2,106
		c-1.4,31.4,19.2,54.2,46.4,80.7c38.2,37.4,63.9,70.3,82.7,94.3c3.4,4.4,6.6,8.4,9.5,12.1c22.3,27.4,44.4,39.6,71.6,39.6
		c5.2,0,9.4,4.2,9.4,9.4C270.1,578.8,265.9,583,260.7,583L260.7,583z"/>
	<path d="M191.5,442.6c-23.5,0-39.6-8-49-24.1c-30.5-51.5-54.4-73.2-77.9-70.2c-5.2,0.6-9.9-3-10.6-8.1c-0.7-5.2,3-9.9,8.1-10.6
		c32.4-4.2,61.2,19.5,96.6,79.3c4.7,8.1,14.7,18.2,47.8,13.7c13-1.7,26.1-1.4,38.7-1c5.1,0.1,10.2,0.3,15.3,0.3
		c5.2,0,9.4,4.2,9.4,9.4s-4.2,9.4-9.4,9.4c-5.3,0-10.5-0.1-15.8-0.3c-12.5-0.4-24.3-0.6-35.7,0.8C202.9,442.2,197,442.6,191.5,442.6
		L191.5,442.6z"/>
	<path d="M206.6,379.7c-1,0-2-0.2-3.1-0.5c-4.9-1.7-7.6-7-5.9-12c5.1-15,14.3-25.5,27.2-31.2c4.7-2.1,10.3,0.1,12.4,4.8
		c2.1,4.8-0.1,10.3-4.8,12.4c-8.1,3.6-13.5,9.9-16.9,20C214.2,377.3,210.6,379.7,206.6,379.7L206.6,379.7z"/>
	<path d="M324.9,327.6c-2.2,0-4.5-0.8-6.3-2.4c-3.9-3.5-4.2-9.4-0.8-13.3c15.3-17.1,22.6-40.2,21.3-66.8
		c-2.4-45.9,5.9-77.5,25.1-96.8c15.2-15.1,37.1-22.1,65.3-20.5c5.2,0.3,9.2,4.7,8.9,9.9c-0.3,5.2-4.8,9.1-9.9,8.9
		c-22.8-1.2-39.6,3.7-51,15.1c-15.1,15-21.6,42.8-19.6,82.4c1.6,31.6-7.4,59.4-26,80.3C330.1,326.6,327.5,327.6,324.9,327.6
		L324.9,327.6z"/>
	<path d="M396.6,283.5c-26.8,0-49.2-33.6-51.4-77.4c-0.4-10.4,0.4-20.4,2.1-29.9c0.9-5.1,5.8-8.5,10.9-7.6c5.1,0.9,8.5,5.8,7.6,11
		c-1.5,8.2-2.1,16.9-1.8,25.8c1.8,35.6,18.9,60.4,33,59.3c14-0.8,28.6-26.6,26.8-62.3c-1.1-25.2-10.4-47.8-23-56.2
		c-4.3-2.9-5.5-8.7-2.6-13.1c2.9-4.3,8.7-5.5,13.1-2.6c17.9,11.9,29.9,39.2,31.4,71c2.2,44.4-17.4,80.5-44.7,82.1
		C397.5,283.5,397.1,283.5,396.6,283.5L396.6,283.5z"/>
	<path d="M395.5,244.2c-15,0-27-16.7-28.2-39.3c-1.3-22.3,9.6-40.6,24.8-41.6c0.4,0,0.7,0,1,0c14.9,0,26.7,16.7,27.6,39.1
		c1.3,22.7-9.2,40.7-24.5,41.7C396,244.2,395.7,244.2,395.5,244.2L395.5,244.2z M393.1,182.2c-2.3,0.5-7.8,8.1-7,21.7
		c0.8,14.2,7,21.5,9.1,21.5h0c1.8-0.1,7.3-7.9,6.6-22C401.3,189.5,395.3,182.4,393.1,182.2L393.1,182.2z"/>
	<path d="M422.7,146.4c-2.2,0-4.4-0.8-6.2-2.3c-35.2-30.3-88.1-50.9-157.3-61.1c-5.2-0.8-8.7-5.6-7.9-10.7c0.8-5.2,5.6-8.7,10.7-7.9
		c72.7,10.8,128.9,32.8,166.8,65.5c3.9,3.4,4.4,9.3,1,13.3C428,145.3,425.4,146.4,422.7,146.4L422.7,146.4z"/>
	<path d="M260.7,583c-5.2,0-9.4-4.2-9.4-9.4s4.2-9.4,9.4-9.4c27.3,0,49.2-12.2,71.3-39.6c2.9-3.6,5.9-7.5,9.3-11.8
		c18.8-24.1,44.6-57.1,83.3-94.6c26-25.5,47.5-49.1,46.1-80.7c-1.7-38.8-16.9-74.5-45.2-106c-3.5-3.9-3.2-9.8,0.7-13.3
		c3.9-3.5,9.8-3.2,13.3,0.7c31.3,34.8,48.1,74.5,50,117.8c1.8,39.3-23.4,67.4-51.7,95.1c-37.7,36.7-63.1,69-81.6,92.7
		c-3.4,4.3-6.5,8.3-9.4,11.9C321,568.2,293.7,583,260.7,583L260.7,583z"/>
	<path d="M329.7,442.6c-5.5,0-11.3-0.4-17.6-1.3c-11.6-1.5-24-1.1-35.9-0.8c-5.2,0.1-10.4,0.3-15.5,0.3c-5.2,0-9.4-4.2-9.4-9.4
		s4.2-9.4,9.4-9.4c5,0,10-0.1,15-0.3c12.7-0.4,25.7-0.7,38.9,1c32.9,4.6,43.1-5.6,47.9-13.7c24.9-42.1,55.9-84.6,96.6-79.3
		c5.2,0.7,8.8,5.4,8.1,10.6c-0.7,5.2-5.3,8.9-10.6,8.1c-23.5-2.9-47.4,18.7-77.9,70.2C369.1,434.7,353,442.6,329.7,442.6
		L329.7,442.6z"/>
	<path d="M314.4,379.7c-4,0-7.7-2.6-9-6.6c-3-9.6-8.5-16.1-16.6-19.8c-4.7-2.2-6.8-7.7-4.7-12.5s7.7-6.9,12.5-4.7
		c12.9,5.9,22.2,16.7,26.8,31.3c1.6,5-1.2,10.3-6.2,11.8C316.3,379.6,315.3,379.7,314.4,379.7L314.4,379.7z"/>
	<path d="M233.5,87.6c-4.9,0-9.1-3.8-9.4-8.8c-1.2-17.7,9.1-35.8,30.6-53.6c4-3.3,10-2.8,13.3,1.2c3.3,4,2.8,10-1.2,13.3
		c-16.5,13.7-24.5,26.4-23.8,37.8c0.3,5.2-3.6,9.7-8.8,10C233.9,87.6,233.7,87.6,233.5,87.6L233.5,87.6z"/>
	<path d="M287.8,87.6c-0.1,0-0.3,0-0.4,0c-5.2-0.2-9.2-4.6-9-9.8c0.5-11.5-7.5-24.3-23.8-38.1c-4-3.4-4.5-9.3-1.1-13.3
		c3.4-4,9.3-4.5,13.3-1.1c21,17.7,31.3,35.7,30.5,53.3C297,83.6,292.8,87.6,287.8,87.6L287.8,87.6z"/>
	<path d="M260.7,479.4c-5.2,0-9.4-4.2-9.4-9.4v-38.7c0-5.2,4.2-9.4,9.4-9.4c5.2,0,9.4,4.2,9.4,9.4V470
		C270.1,475.2,265.9,479.4,260.7,479.4z"/>
	<path d="M238.6,502.1c-3.5,0-6.9-2-8.5-5.3c-2.3-4.7-0.3-10.3,4.4-12.6c7.9-3.8,13.9-10.1,17.6-18.1c2.1-4.7,7.7-6.9,12.5-4.7
		c4.7,2.1,6.8,7.7,4.7,12.5c-5.4,11.9-14.8,21.6-26.5,27.3C241.4,501.8,240,502.1,238.6,502.1L238.6,502.1z"/>
	<path d="M282.4,502.1c-1.4,0-2.9-0.3-4.2-1c-12-6-21.3-15.8-26.2-27.5c-2-4.8,0.3-10.3,5.1-12.3c4.8-2,10.3,0.2,12.3,5.1
		c3.1,7.5,9.4,14,17.2,17.9c4.7,2.3,6.5,8,4.2,12.7C289.2,500.2,285.8,502.1,282.4,502.1L282.4,502.1z"/>
</g>
</svg>
