<?xml version="1.0" encoding="utf-8"?>
<!-- Generator: Adobe Illustrator 26.3.0, SVG Export Plug-In . SVG Version: 6.00 Build 0)  -->
<svg version="1.1" id="Livello_1" xmlns="http://www.w3.org/2000/svg" xmlns:xlink="http://www.w3.org/1999/xlink" x="0px" y="0px"
	 viewBox="0 0 578 531.5" style="enable-background:new 0 0 578 531.5;" xml:space="preserve">
<path d="M290,14c-50.7,3.8-98.2,30.6-135.2,75.9c-46.3,10.4-81.1,37.2-92.1,73.1C52,197.7,67.6,237.1,106.5,267
	c-1.9,9.5-1.9,19.1-0.4,28.6c-15.5,9.4-25.9,23.1-30.3,37.8c-5.5,18.4-3.1,37.6,4.7,53.4c7.8,15.8,21.6,29.5,40.5,32.6
	c14.2,2.4,29.5-2.4,43.3-13.3c10.7,10.4,21.9,21.2,35.6,30.7c-8.1,12.7-8.8,25.9-7.4,40.8c0,8.4,4.4,13,7.5,15.8
	c28.4,18,66.6,22.5,96,24c23.2,1.1,46.7-0.2,66.7-7.5c18.3-7.5,31.2-18.6,36.1-36.6l14.5-5.8c25.9,8.3,49.3,7.3,67.4-1.9
	c19.7-10,32.1-28.4,36.3-47.8c4.1-19.5,0.4-40.8-12.8-57.5c-11.4-14.5-30-24-52.9-26.5c-29.2-58.7-65-100.3-125.6-129.1
	c50.3-6.6,67.1-6.6,115.6-40.1c-26.1-39.3-53.2-56.4-83.4-66.9C379,80.3,389.7,64,401.2,41.3C353.6,18.7,322.8,12.4,290,14L290,14z
	 M352.2,56.4c-26,27.8-58.4,40.6-92.3,57.3c45.9,5.5,101.3,13.1,132.1,42.4c-60.4,22.7-88.8,13.9-165.7,8.1v42.6
	c127.3,30.6,166.6,75.4,203.7,159.6c17-0.5,37.7,2.3,47.8,14.7c6.4,8.2,8.7,19.2,6.5,29.6s-8.6,19.7-18.7,24.9
	c-23.4,5.4-34.3,3.2-53.2-3.9c-15.3,6.2-31.6,12.5-44.8,17.7c1.3,15.2-4,24.2-16.3,28.7c-12.8,4.7-33.1,6.6-53.6,5.6
	c-25.2-2.3-48.9-4.6-71.6-13.8c-1.6-11.3,4.4-18.8,10.3-23.3c13-12,33.2-7.6,47.3-7.5c5.7,0,11.3-3.1,14.3-8
	c3-4.9,3.3-11.3,0.7-16.4c-15.2-30.2-14.3-53.6-7.7-64.3c3.3-5.3,7.5-8.6,15.2-10.3c7.7-1.7,19.1-1.4,33.8,3.5
	c8.5,3.4,19.4-1.6,22.2-10.3c2.9-8.7-2.9-19.2-11.7-21.5c-17.2-5.4-35.1-8.2-51.7-4.6c-15.4,3.5-28.7,12.8-36.6,25.6
	c-12.1,19.6-12.5,44.7-3.9,71.8c-11.2-0.2-23.4,1-35,7.2c-23.5-16.8-40.7-34-60.2-53.6c-9.3,10.1-21.3,30.4-36.4,28.2
	c-5.4-0.9-11.7-5.9-15.9-14.4c-4.2-8.5-5.4-19.7-2.6-28.9c9.3-18.9,19.3-21.3,37.7-28c-8.7-22.6-8.3-40.4-1.1-61.5
	c-48.9-33-54.5-49.8-49.9-80.8c12.3-30.7,34.7-47.6,78.6-52.9c34.5-45.1,73.7-73.1,118.4-73.4C312.3,45.5,335.6,50.4,352.2,56.4
	L352.2,56.4z M143.4,143.8c-9.3,0-16.8,7.4-16.8,16.6c0,9.2,7.5,16.8,16.8,16.8c9.3,0,16.8-7.6,16.8-16.8
	C160.2,151.2,152.7,143.8,143.4,143.8L143.4,143.8z"/>
</svg>
