<?xml version="1.0" encoding="utf-8"?>
<!-- Generator: Adobe Illustrator 26.3.0, SVG Export Plug-In . SVG Version: 6.00 Build 0)  -->
<svg version="1.1" id="Livello_1" xmlns="http://www.w3.org/2000/svg" xmlns:xlink="http://www.w3.org/1999/xlink" x="0px" y="0px"
	 viewBox="0 0 700 588" style="enable-background:new 0 0 700 588;" xml:space="preserve">
<g>
	<path d="M512.7,424.7l40-64c18.7-29.3,26.7-66.7,18.7-101.3c29.3-42.7,45.3-77.3,45.3-104c0-69.3-56-128-128-128
		c-69.3,0-122.7,53.3-125.3,120h-26.7c-2.7-66.7-58.7-120-125.3-120c-69.3,0-128,56-128,128c0,26.7,13.3,61.3,45.3,104
		c-8,34.7,0,72,18.7,101.3l40,64c-26.7,2.7-61.3,10.7-93.3,34.7c-10.7,8-13.3,26.7-5.3,37.3c8,10.7,26.7,13.3,37.3,5.3
		c40-29.3,77.3-26.7,96-24l2.7,5.3c-24,2.7-53.3,10.7-77.3,29.3c-10.7,8-13.3,26.7-5.3,37.3c8,10.7,26.7,13.3,37.3,5.3
		c29.3-24,77.3-21.3,93.3-18.7c21.3,16,50.7,24,77.3,24c29.3,0,56-8,77.3-24c16-2.7,61.3-5.3,93.3,18.7c10.7,8,29.3,5.3,37.3-5.3
		c8-10.7,5.3-29.3-5.3-37.3c-24-18.7-53.3-26.7-77.3-29.3l2.7-5.3c16-2.7,56-5.3,96,24c10.7,8,29.3,5.3,37.3-5.3
		c8-10.7,5.3-29.3-5.3-37.3C574,435.3,539.3,424.7,512.7,424.7L512.7,424.7z M491.3,80.7c40,0,74.7,32,74.7,74.7
		c0,5.3-2.7,18.7-18.7,45.3c-40-48-85.3-53.3-130.7-53.3C419.3,110,451.3,80.7,491.3,80.7L491.3,80.7z M211.3,80.7
		c37.3,0,69.3,29.3,72,66.7c-26.7,0-85.3-2.7-128,53.3c-16-29.3-18.7-42.7-18.7-48C136.7,112.7,168.7,80.7,211.3,80.7z M280.7,467.3
		c-8-13.3-80-125.3-88-138.7C176.7,310,174,286,182,262c8-29.3,37.3-61.3,80-61.3h176c37.3,0,69.3,24,80,58.7c8,24,5.3,48-10.7,69.3
		c-8,13.3-80,125.3-88,138.7c-16,24-42.7,40-69.3,40C320.7,507.3,294,494,280.7,467.3L280.7,467.3z"/>
	<path d="M448.7,312.7c10.7-10.7,10.7-26.7,0-37.3c-10.7-10.7-26.7-10.7-37.3,0c-10.7,10.7-10.7,26.7,0,37.3
		C422,323.3,438,323.3,448.7,312.7z"/>
	<path d="M251.3,275.3c-10.7,10.7-10.7,29.3,0,37.3c10.7,10.7,26.7,10.7,37.3,0c10.7-10.7,10.7-26.7,0-37.3
		C278,264.7,262,264.7,251.3,275.3L251.3,275.3z"/>
	<path d="M390,403.3c-26.7-13.3-53.3-13.3-80,0c-13.3,8-18.7,24-10.7,37.3s24,18.7,37.3,10.7c10.7-5.3,18.7-5.3,26.7,0
		c13.3,8,29.3,2.7,37.3-10.7C406,427.3,403.3,411.3,390,403.3z"/>
</g>
</svg>
