<?xml version="1.0" encoding="utf-8"?>
<!-- Generator: Adobe Illustrator 26.3.0, SVG Export Plug-In . SVG Version: 6.00 Build 0)  -->
<svg version="1.1" id="Livello_1" xmlns="http://www.w3.org/2000/svg" xmlns:xlink="http://www.w3.org/1999/xlink" x="0px" y="0px"
	 viewBox="0 0 603 603" style="enable-background:new 0 0 603 603;" xml:space="preserve">
<style type="text/css">
	.st0{fill-rule:evenodd;clip-rule:evenodd;}
</style>
<symbol  id="c" viewBox="-11.6 -13.4 23.1 26.8">
	<path d="M9.9-12v6.2C8.1-6.5,6.4-7.1,4.8-7.4C3.2-7.8,1.6-8,0.2-8c-1.6,0-2.7,0.2-3.5,0.6C-4-7-4.4-6.4-4.4-5.6
		c0,0.7,0.3,1.2,0.9,1.5C-3-3.7-1.9-3.5-0.5-3.3L1-3.1c4.2,0.5,7,1.4,8.4,2.6c1.4,1.2,2.2,3.1,2.2,5.7c0,2.7-1,4.8-3,6.1
		c-2,1.4-5,2-9,2c-1.7,0-3.4-0.1-5.2-0.4c-1.8-0.3-3.6-0.7-5.5-1.2V5.6c1.6,0.8,3.3,1.4,5,1.8C-4.5,7.8-2.7,8-1,8
		c1.6,0,2.8-0.2,3.6-0.7c0.8-0.4,1.2-1.1,1.2-2c0-0.7-0.3-1.3-0.8-1.6C2.4,3.4,1.3,3.1-0.3,2.9l-1.4-0.2c-3.6-0.4-6.2-1.3-7.6-2.5
		c-1.5-1.2-2.2-3.1-2.2-5.6c0-2.7,0.9-4.7,2.8-6c1.9-1.3,4.7-2,8.5-2c1.5,0,3.1,0.1,4.7,0.3C6.1-12.8,7.9-12.5,9.9-12L9.9-12z"/>
</symbol>
<g>
	<path class="st0" d="M301.5,170.8c-97.8,0-177.3,79.6-177.3,177.3c0,97.8,79.5,177.3,177.3,177.3c97.8,0,177.3-79.5,177.3-177.3
		C478.8,250.4,399.3,170.8,301.5,170.8 M301.5,544.2c-108.1,0-196-87.9-196-196c0-108.1,87.9-196,196-196s196,87.9,196,196
		C497.5,456.3,409.6,544.2,301.5,544.2"/>
	<path class="st0" d="M243.3,180.2c-4.8,0-8.9-3.7-9.3-8.6c-1.7-21.3-4.1-43.1-6.4-64.1l-0.4-3.2c-0.2-2.2-0.4-4.4-0.4-6.7
		c-0.4-19.5,7.2-38.3,21.3-52.9c14.1-14.6,33.5-23,53.2-23.2c20,0.2,38.6,7.4,52.7,21.3c14.3,14.1,22.1,33.1,22.1,53.4
		c0,4.6-0.4,9.2-1.3,13.7c-3.4,18.2-5.7,38.2-6.9,61.2c-0.3,5.1-4.7,9-9.8,8.8c-5.2-0.3-9.1-4.7-8.9-9.8c1.3-23.8,3.6-44.6,7.2-63.6
		c0.6-3.4,0.9-6.8,0.9-10.2c0-15.3-5.9-29.5-16.6-40.1c-10.4-10.3-24.1-15.9-38.8-15.9h-0.6c-14.7,0.1-29.3,6.6-40,17.6
		c-10.6,11-16.3,25-16,39.6c0,1.7,0.1,3.3,0.3,4.9l0.4,3.2c2.3,21.2,4.8,43,6.4,64.7c0.4,5.1-3.4,9.6-8.6,10
		C243.8,180.2,243.6,180.2,243.3,180.2"/>
	<path class="st0" d="M301.5,217.5c-72.1,0-130.7,58.6-130.7,130.7c0,72.1,58.6,130.7,130.7,130.7c72.1,0,130.7-58.6,130.7-130.7
		C432.2,276.1,373.5,217.5,301.5,217.5 M301.5,497.5c-82.3,0-149.3-67-149.3-149.3c0-82.3,67-149.3,149.3-149.3
		c82.3,0,149.3,67,149.3,149.3C450.8,430.5,383.8,497.5,301.5,497.5"/>
	<path class="st0" d="M269.9,394.8h63.1l23.3-46.7l-23.3-46.7h-63.1l-23.3,46.7L269.9,394.8z M338.8,413.5h-74.7
		c-3.5,0-6.8-2-8.4-5.2l-28-56c-1.3-2.6-1.3-5.7,0-8.3l28-56c1.6-3.2,4.8-5.2,8.4-5.2h74.7c3.5,0,6.8,2,8.3,5.2l28,56
		c1.3,2.6,1.3,5.7,0,8.3l-28,56C345.6,411.5,342.4,413.5,338.8,413.5z"/>
	<path class="st0" d="M441.5,357.5h-74.7c-3.5,0-6.8-2-8.4-5.2l-28-56c-1.3-2.6-1.3-5.7,0-8.3l28-56c2.3-4.6,7.9-6.5,12.5-4.2
		c4.6,2.3,6.5,7.9,4.2,12.5l-25.9,51.8l23.3,46.7h68.9c5.2,0,9.3,4.2,9.3,9.3C450.8,353.3,446.6,357.5,441.5,357.5"/>
	<path class="st0" d="M366.8,469.5c-3.4,0-6.7-1.9-8.4-5.2l-28-56c-1.3-2.6-1.3-5.7,0-8.3l28-56c2.3-4.6,7.9-6.5,12.5-4.2
		c4.6,2.3,6.5,7.9,4.2,12.5l-25.9,51.8l25.9,51.8c2.3,4.6,0.4,10.2-4.2,12.5C369.7,469.2,368.2,469.5,366.8,469.5"/>
	<path class="st0" d="M236.1,469.5c-1.4,0-2.8-0.3-4.2-1c-4.6-2.3-6.5-7.9-4.2-12.5l25.9-51.8l-25.9-51.8
		c-2.3-4.6-0.4-10.2,4.2-12.5c4.6-2.3,10.2-0.4,12.5,4.2l28,56c1.3,2.6,1.3,5.7,0,8.3l-28,56C242.9,467.6,239.6,469.5,236.1,469.5"
		/>
	<path class="st0" d="M236.2,357.5h-74.7c-5.2,0-9.3-4.2-9.3-9.3c0-5.2,4.2-9.3,9.3-9.3h68.9l23.3-46.7l-25.9-51.8
		c-2.3-4.6-0.4-10.2,4.2-12.5c4.6-2.3,10.2-0.4,12.5,4.2l28,56c1.3,2.6,1.3,5.7,0,8.3l-28,56C242.9,355.5,239.7,357.5,236.2,357.5"
		/>
	<path class="st0" d="M496.6,547.3c-12,0-23.9-4.5-33-13.6l-41.9-41.9c-3.6-3.7-3.6-9.6,0-13.2c3.6-3.6,9.6-3.6,13.2,0l41.9,41.9
		c10.9,10.9,28.7,10.9,39.6,0c5.3-5.3,8.2-12.3,8.2-19.8c0-7.5-2.9-14.5-8.2-19.8l-50.7-50.7c-3.6-3.6-3.6-9.5,0-13.2
		c3.7-3.7,9.6-3.7,13.2,0l50.7,50.7c8.8,8.8,13.7,20.5,13.7,33c0,12.5-4.9,24.2-13.7,33C520.5,542.8,508.5,547.3,496.6,547.3"/>
	<path class="st0" d="M472.9,283.5c-2.4,0-4.8-0.9-6.6-2.7c-3.6-3.6-3.6-9.5,0-13.2l50-50.1c5.3-5.3,8.2-12.3,8.2-19.8
		c0-7.5-2.9-14.5-8.2-19.8c-10.9-10.9-28.7-10.9-39.6,0l-40.8,40.8c-3.6,3.6-9.6,3.6-13.2,0c-3.6-3.6-3.6-9.6,0-13.2l40.8-40.8
		c18.2-18.2,47.8-18.2,66,0c8.8,8.8,13.7,20.5,13.7,33c0,12.5-4.9,24.2-13.7,33l-50,50.1C477.7,282.6,475.3,283.5,472.9,283.5"/>
	<path class="st0" d="M130.1,283.5c-2.4,0-4.8-0.9-6.6-2.7l-50-50.1c-18.2-18.2-18.2-47.8,0-66c18.2-18.2,47.8-18.2,66,0l40.8,40.8
		c3.6,3.7,3.6,9.6,0,13.2c-3.7,3.6-9.6,3.6-13.2,0l-40.8-40.8c-10.9-10.9-28.7-10.9-39.6,0s-10.9,28.7,0,39.6l50,50.1
		c3.6,3.6,3.6,9.6,0,13.2C134.8,282.6,132.5,283.5,130.1,283.5"/>
	<path class="st0" d="M106.4,547.3c-11.9,0-23.9-4.5-33-13.6c-18.2-18.2-18.2-47.8,0-66l50.7-50.7c3.6-3.7,9.5-3.7,13.2,0
		c3.6,3.6,3.6,9.6,0,13.2l-50.7,50.7c-10.9,10.9-10.9,28.7,0,39.6c10.6,10.6,29,10.6,39.6,0l41.9-41.9c3.6-3.6,9.6-3.6,13.2,0
		c3.7,3.6,3.7,9.5,0,13.2l-41.9,41.9C130.3,542.8,118.4,547.3,106.4,547.3"/>
	<path class="st0" d="M357.5,581.5c-54.5,0-77-23.9-86.3-44c-2.2-4.7-0.1-10.2,4.5-12.4c4.7-2.2,10.2-0.1,12.4,4.5
		c8.5,18.4,26.1,29.2,52.5,32.3c-3.4-7.4-6.8-17.2-9-29.6c-0.9-5.1,2.5-9.9,7.6-10.8c5.2-0.9,9.9,2.6,10.8,7.6
		c4.2,24.6,14.4,36.8,14.5,36.9c2.4,2.8,2.9,6.7,1.4,10C364.4,579.3,361.1,581.5,357.5,581.5L357.5,581.5z"/>
	<path class="st0" d="M282.8,86.8c0,5.2-4.2,9.3-9.3,9.3c-5.2,0-9.3-4.2-9.3-9.3s4.2-9.3,9.3-9.3C278.6,77.5,282.8,81.7,282.8,86.8"
		/>
	<path class="st0" d="M338.8,86.8c0,5.2-4.2,9.3-9.3,9.3c-5.2,0-9.3-4.2-9.3-9.3s4.2-9.3,9.3-9.3C334.6,77.5,338.8,81.7,338.8,86.8"
		/>
</g>
<g>
	<defs>
		<rect id="SVGID_1_" x="648.1" y="653" width="700" height="700"/>
	</defs>
	<clipPath id="SVGID_00000182498994198022779560000004834590100961001141_">
		<use xlink:href="#SVGID_1_"  style="overflow:visible;"/>
	</clipPath>
	<g style="clip-path:url(#SVGID_00000182498994198022779560000004834590100961001141_);">
		
			<use xlink:href="#c"  width="23.1" height="26.8" x="-11.6" y="-13.4" transform="matrix(1 0 0 1 662.0778 640.2575)" style="overflow:visible;"/>
	</g>
</g>
</svg>
